<svg width="24" height="24" viewBox="0 0 24 24" fill="none" xmlns="http://www.w3.org/2000/svg">
<path fill-rule="evenodd" clip-rule="evenodd" d="M19.0249 13.644L16.0513 18.0897C15.6791 18.6461 15.1993 19.1098 14.625 19.4678C13.8564 19.9472 12.9694 20.2005 12.0602 20.2005H12.06C11.726 20.2005 11.3909 20.1661 11.0639 20.0981C9.82243 19.8402 8.7568 19.1269 8.06302 18.0897L5.08937 13.644L2.84825 16.9944C2.49843 17.5171 2.3125 18.1262 2.3125 18.7485C2.3125 19.6413 2.68738 20.4495 3.29335 21.0345C3.89931 21.6196 4.73635 21.9815 5.66103 21.9815H18.4531C19.0975 21.9815 19.7283 21.8021 20.2698 21.4643C21.0465 20.98 21.5464 20.2374 21.7266 19.4286C21.907 18.6197 21.7677 17.7444 21.2659 16.9944L19.0249 13.644Z" fill="#9E50EE"/>
<path fill-rule="evenodd" clip-rule="evenodd" d="M11.3525 17.9338C12.1903 18.1079 13.0968 17.9733 13.8736 17.4889C14.2725 17.2401 14.6122 16.9124 14.8699 16.5271L21.2659 6.96478C21.7675 6.21482 21.9069 5.33947 21.7266 4.53056C21.5462 3.72182 21.0465 2.97916 20.2697 2.49491C19.7283 2.15724 19.0975 1.97772 18.4531 1.97772H5.66085C4.73635 1.97772 3.89913 2.33961 3.29317 2.92484C2.68721 3.50989 2.3125 4.31809 2.3125 5.21089C2.3125 5.83316 2.49843 6.44225 2.84807 6.96478L9.2442 16.5271C9.74582 17.2769 10.5148 17.7596 11.3525 17.9338Z" fill="#F8524F"/>
</svg>
