<svg width="134" height="32" viewBox="0 0 134 32" fill="none" xmlns="http://www.w3.org/2000/svg">
    <path d="M5.58753 21.5635C8.00541 21.5635 9.9966 20.1801 10.8093 18.0643L8.26954 17.3116C7.80222 18.3695 6.78631 19.0205 5.58753 19.0205C4.75448 19.0205 4.04334 18.7357 3.47443 18.1457C2.90552 17.5557 2.62106 16.8437 2.62106 15.9689C2.62106 15.0941 2.90552 14.382 3.47443 13.7921C4.04334 13.2021 4.75448 12.9173 5.58753 12.9173C6.78631 12.9173 7.80222 13.5683 8.26954 14.6262L10.8093 13.8734C9.9966 11.7576 8.00541 10.3742 5.58753 10.3742C3.98239 10.3742 2.6617 10.9032 1.58483 11.9814C0.528275 13.0393 0 14.3617 0 15.9689C0 17.5761 0.528275 18.8984 1.58483 19.9767C2.6617 21.0346 3.98239 21.5635 5.58753 21.5635ZM17.1283 21.5635C18.3271 21.5635 19.404 21.177 20.3386 20.4242V21.2584H22.8581V10.6794H20.3386V11.5135C19.404 10.7608 18.3271 10.3742 17.1283 10.3742C15.6654 10.3742 14.4463 10.9032 13.4507 11.9814C12.4754 13.0393 11.9878 14.3617 11.9878 15.9689C11.9878 17.5761 12.4754 18.8984 13.4507 19.9767C14.4463 21.0346 15.6654 21.5635 17.1283 21.5635ZM17.4534 19.0205C16.661 19.0205 15.9702 18.7357 15.4216 18.1457C14.873 17.5557 14.6089 16.8437 14.6089 15.9689C14.6089 15.0941 14.873 14.382 15.4216 13.7921C15.9702 13.2021 16.661 12.9173 17.4534 12.9173C18.2458 12.9173 18.9163 13.2021 19.4649 13.7921C20.0135 14.382 20.298 15.0941 20.298 15.9689C20.298 16.8437 20.0135 17.5557 19.4649 18.1457C18.9163 18.7357 18.2458 19.0205 17.4534 19.0205ZM27.5516 25.8358V20.4242C28.4862 21.177 29.5428 21.5635 30.7416 21.5635C32.2045 21.5635 33.4236 21.0346 34.4192 19.9767C35.4148 18.8984 35.9024 17.5761 35.9024 15.9689C35.9024 14.3617 35.4148 13.0393 34.4192 11.9814C33.4236 10.9032 32.2045 10.3742 30.7416 10.3742C29.5428 10.3742 28.4862 10.7608 27.5516 11.5135V10.6794H25.0118V25.8358H27.5516ZM30.4165 19.0205C29.6241 19.0205 28.9536 18.7357 28.405 18.1457C27.8564 17.5557 27.5922 16.8437 27.5922 15.9689C27.5922 15.0941 27.8564 14.382 28.405 13.7921C28.9536 13.2021 29.6241 12.9173 30.4165 12.9173C31.2089 12.9173 31.8794 13.2021 32.428 13.7921C32.9766 14.382 33.261 15.0941 33.261 15.9689C33.261 16.8437 32.9766 17.5557 32.428 18.1457C31.8794 18.7357 31.2089 19.0205 30.4165 19.0205ZM38.9095 9.74357C39.8645 9.74357 40.535 9.03152 40.535 8.11604C40.535 7.20055 39.8238 6.50885 38.9095 6.50885C37.9952 6.50885 37.3044 7.20055 37.3044 8.11604C37.3044 9.03152 37.9952 9.74357 38.9095 9.74357ZM40.1896 21.2584V10.6794H37.6498V21.2584H40.1896ZM48.134 21.2584V18.8374H46.8133C46.0616 18.8374 45.513 18.2881 45.513 17.5557V12.8969H48.134V10.6794H45.513V8.6043H42.9732V10.6794H41.4696V12.8969H42.9732V17.9219C42.9732 18.8781 43.3186 19.6715 44.0094 20.3022C44.7002 20.9329 45.5536 21.2584 46.5695 21.2584H48.134ZM54.453 21.5635C55.6518 21.5635 56.7287 21.177 57.6633 20.4242V21.2584H60.1828V10.6794H57.6633V11.5135C56.7287 10.7608 55.6518 10.3742 54.453 10.3742C52.9901 10.3742 51.771 10.9032 50.7754 11.9814C49.8001 13.0393 49.3125 14.3617 49.3125 15.9689C49.3125 17.5761 49.8001 18.8984 50.7754 19.9767C51.771 21.0346 52.9901 21.5635 54.453 21.5635ZM54.7781 19.0205C53.9857 19.0205 53.2949 18.7357 52.7463 18.1457C52.1977 17.5557 51.9336 16.8437 51.9336 15.9689C51.9336 15.0941 52.1977 14.382 52.7463 13.7921C53.2949 13.2021 53.9857 12.9173 54.7781 12.9173C55.5705 12.9173 56.241 13.2021 56.7896 13.7921C57.3382 14.382 57.6227 15.0941 57.6227 15.9689C57.6227 16.8437 57.3382 17.5557 56.7896 18.1457C56.241 18.7357 55.5705 19.0205 54.7781 19.0205ZM64.8763 21.2584V6.00024H62.3365V21.2584H64.8763Z" fill="#FBFAFE"/>
    <path d="M95.7825 21.5634C97.2454 21.5634 98.4645 21.0345 99.4601 19.9766C100.456 18.8983 100.943 17.5759 100.943 15.9688C100.943 14.3616 100.456 13.0392 99.4601 11.9813C98.4645 10.9031 97.2454 10.3741 95.7825 10.3741C94.5837 10.3741 93.5272 10.7607 92.5925 11.5134V6.00012H90.0527V21.2582H92.5925V20.4241C93.5272 21.1769 94.5837 21.5634 95.7825 21.5634ZM95.4574 19.0204C94.665 19.0204 93.9945 18.7356 93.4459 18.1456C92.8973 17.5556 92.6332 16.8436 92.6332 15.9688C92.6332 15.094 92.8973 14.3819 93.4459 13.7919C93.9945 13.202 94.665 12.9171 95.4574 12.9171C96.2498 12.9171 96.9203 13.202 97.4689 13.7919C98.0175 14.3819 98.302 15.094 98.302 15.9688C98.302 16.8436 98.0175 17.5556 97.4689 18.1456C96.9203 18.7356 96.2498 19.0204 95.4574 19.0204ZM108.014 21.5634C110.148 21.5634 111.976 20.5055 112.951 18.8169L110.493 18.1049C109.883 18.8576 109.05 19.2238 108.014 19.2238C106.531 19.2238 105.312 18.288 104.926 16.9046H113.317C113.378 16.4977 113.398 16.1925 113.398 15.9688C113.398 14.3819 112.87 13.0595 111.793 11.9813C110.737 10.9031 109.416 10.3741 107.852 10.3741C106.287 10.3741 104.966 10.9031 103.889 11.9813C102.833 13.0392 102.305 14.3616 102.305 15.9688C102.305 17.5759 102.853 18.8983 103.93 19.9766C105.027 21.0345 106.389 21.5634 108.014 21.5634ZM110.777 14.9312H104.946C105.332 13.6088 106.49 12.7137 107.811 12.7137C109.193 12.7137 110.371 13.6088 110.777 14.9312ZM119.717 21.5634C120.916 21.5634 121.993 21.1769 122.928 20.4241V21.2582H125.447V10.6793H122.928V11.5134C121.993 10.7607 120.916 10.3741 119.717 10.3741C118.255 10.3741 117.035 10.9031 116.04 11.9813C115.065 13.0392 114.577 14.3616 114.577 15.9688C114.577 17.5759 115.065 18.8983 116.04 19.9766C117.035 21.0345 118.255 21.5634 119.717 21.5634ZM120.043 19.0204C119.25 19.0204 118.559 18.7356 118.011 18.1456C117.462 17.5556 117.198 16.8436 117.198 15.9688C117.198 15.094 117.462 14.3819 118.011 13.7919C118.559 13.202 119.25 12.9171 120.043 12.9171C120.835 12.9171 121.505 13.202 122.054 13.7919C122.603 14.3819 122.887 15.094 122.887 15.9688C122.887 16.8436 122.603 17.5556 122.054 18.1456C121.505 18.7356 120.835 19.0204 120.043 19.0204ZM130.141 21.2582V15.4398C130.141 14.0361 131.177 12.9782 132.579 12.9782C132.945 12.9782 133.29 13.0595 133.615 13.202V10.3741C132.03 10.3741 130.872 10.9031 130.141 11.9813V10.6793H127.601V21.2582H130.141Z" fill="#FBFAFE"/>
    <path fill-rule="evenodd" clip-rule="evenodd" d="M82.9014 14.9044L80.6275 18.304C80.3428 18.7295 79.976 19.0841 79.5368 19.3579C78.949 19.7245 78.2707 19.9182 77.5754 19.9182H77.5753C77.3199 19.9182 77.0637 19.8919 76.8136 19.8399C75.8642 19.6427 75.0493 19.0972 74.5188 18.304L72.2448 14.9044L70.531 17.4665C70.2635 17.8662 70.1213 18.332 70.1213 18.8078C70.1213 19.4905 70.408 20.1086 70.8714 20.556C71.3348 21.0033 71.9749 21.2801 72.682 21.2801H82.4642C82.9569 21.2801 83.4393 21.1429 83.8534 20.8846C84.4474 20.5143 84.8296 19.9464 84.9674 19.3279C85.1054 18.7093 84.9988 18.04 84.6151 17.4665L82.9014 14.9044Z" fill="#9E50EE"/>
    <path fill-rule="evenodd" clip-rule="evenodd" d="M77.0343 18.1847C77.6749 18.3179 78.3682 18.2149 78.9622 17.8445C79.2672 17.6542 79.527 17.4036 79.7241 17.1091L84.6151 9.79667C84.9987 9.22316 85.1053 8.55378 84.9674 7.9352C84.8295 7.31676 84.4474 6.74884 83.8534 6.37853C83.4393 6.12031 82.9569 5.98303 82.4642 5.98303H72.6818C71.9749 5.98303 71.3346 6.25977 70.8713 6.7073C70.4079 7.15469 70.1213 7.77272 70.1213 8.45545C70.1213 8.93131 70.2635 9.39708 70.5309 9.79667L75.422 17.1091C75.8056 17.6824 76.3937 18.0515 77.0343 18.1847Z" fill="#F8524F"/>
</svg>
