<svg width="116" height="32" viewBox="0 0 116 32" fill="none" xmlns="http://www.w3.org/2000/svg">
    <path fill-rule="evenodd" clip-rule="evenodd" d="M12.5798 2.00012V7.09107H15.0958V2.00012H12.5798ZM22.6437 17.273H27.6756V14.7275H22.6437V17.273ZM13.8378 14.2003L17.3959 10.6005L19.1749 12.4005L15.6168 16.0003L13.8378 14.2004L12.0588 16.0003L8.5007 12.4005L10.2798 10.6005L13.8378 14.2003ZM13.8378 17.8003L15.6169 16.0003L19.175 19.6002L17.3959 21.4001L13.8378 17.8003ZM12.0587 16.0004L8.50063 19.6002L10.2797 21.4001L13.8378 17.8003L12.0587 16.0004ZM12.5798 30.0002V24.9092H15.0958V30.0002H12.5798ZM0 17.273H5.03193V14.7275H0V17.273ZM19.175 8.80056L22.7331 5.20072L24.5121 7.00064L20.954 10.6005L19.175 8.80056ZM22.7331 26.7995L24.5121 24.9996L20.954 21.3998L19.1749 23.1997L22.7331 26.7995ZM3.16353 24.9996L6.72164 21.3997L8.50069 23.1997L4.94258 26.7995L3.16353 24.9996ZM8.50079 8.80059L4.94267 5.20074L3.16362 7.00067L6.72173 10.6005L8.50079 8.80059Z" fill="white"/>
    <path fill-rule="evenodd" clip-rule="evenodd" d="M39.8223 12.2017V14.6958H48.7706V17.1721H39.8223V19.7994H49.2356V22.3645H36.9009V9.6366H49.1478V12.2017H39.8223ZM55.0102 13.2224L57.528 15.8496L60.0458 13.2224H63.6164L59.423 17.5804L64.1077 22.3645H60.5371L57.528 19.2934L54.5189 22.3645H50.9483L55.6331 17.5804L51.4396 13.2224H55.0102ZM65.8345 13.2225V22.3645H68.712V17.9799C68.712 16.4621 69.3349 15.1929 71.4316 15.1929C73.5283 15.1929 74.1512 16.4621 74.1512 17.9799V22.3645H77.0287V17.9799C77.0287 15.0775 75.6864 12.9562 72.0018 12.9562C70.2034 12.9562 69.2296 13.6485 68.712 14.4562V13.2225H65.8345ZM91.292 17.7935C91.292 20.6515 89.1514 22.6308 84.958 22.6308C80.7645 22.6308 78.624 20.6515 78.624 17.7935C78.624 14.9177 80.7645 12.9562 84.958 12.9562C89.1514 12.9562 91.292 14.9177 91.292 17.7935ZM81.5015 17.7935C81.5015 19.2935 82.4753 20.3941 84.958 20.3941C87.4407 20.3941 88.4145 19.2935 88.4145 17.7935C88.4145 16.2935 87.4407 15.1929 84.958 15.1929C82.4753 15.1929 81.5015 16.2935 81.5015 17.7935ZM104.291 13.2224H101.256L97.9571 19.4177L94.6585 13.2224H91.6231L96.5184 22.3645H99.3959L104.291 13.2224ZM109.339 22.5776C106.742 22.5776 104.733 21.7699 104.733 19.6042C104.733 16.5953 108.076 16.1515 112.857 16.5065C112.857 15.6988 112.576 15.1041 110.55 15.1041C109.365 15.1041 108.392 15.2639 107.69 15.4148C107.277 15.5036 106.918 15.6012 106.593 15.7166L105.593 13.8615C105.962 13.6929 106.4 13.542 106.909 13.4089C107.786 13.187 109.041 12.9562 110.725 12.9562C114.629 12.9562 115.735 14.2432 115.735 16.7284V22.3645H112.848V21.1663C112.339 22.0095 111.366 22.5776 109.339 22.5776ZM112.848 18.1219C109.778 18.0243 107.611 18.0509 107.611 19.3379C107.611 19.9503 108.164 20.3409 110.041 20.3409C112.041 20.3409 112.848 19.613 112.848 18.8231V18.1219Z" fill="white"/>
</svg>
