<svg width="24" height="24" viewBox="0 0 24 24" fill="none" xmlns="http://www.w3.org/2000/svg">
<path fill-rule="evenodd" clip-rule="evenodd" d="M11.0116 1V5.00003H12.9884V1H11.0116ZM18.9189 13.0001H22.8725V11.0001H18.9189V13.0001ZM12 10.5859L14.7956 7.75746L16.1934 9.17168L13.3978 12.0001L12 10.586L10.6022 12.0001L7.80655 9.17168L9.20438 7.75746L12 10.5859ZM12 13.4144L13.3978 12.0002L16.1935 14.8286L14.7956 16.2428L12 13.4144ZM10.6022 12.0002L7.8065 14.8286L9.20432 16.2428L12 13.4144L10.6022 12.0002ZM11.0116 23V19H12.9884V23H11.0116ZM1.12744 13.0001H5.08109V11.0001H1.12744V13.0001ZM16.1935 6.3432L18.9891 3.51475L20.3869 4.92897L17.5913 7.75742L16.1935 6.3432ZM18.9891 20.4852L20.3869 19.071L17.5913 16.2426L16.1934 17.6568L18.9891 20.4852ZM3.61307 19.071L6.40872 16.2425L7.80655 17.6568L5.01089 20.4852L3.61307 19.071ZM7.80662 6.34322L5.01097 3.51477L3.61314 4.929L6.40879 7.75744L7.80662 6.34322Z" fill="#0081E3"/>
</svg>
