<svg width="116" height="32" viewBox="0 0 116 32" fill="none" xmlns="http://www.w3.org/2000/svg">
    <ellipse cx="14.4687" cy="16" rx="14.0404" ry="14" fill="#FF7700"/>
    <rect x="12.2749" y="10.5312" width="3.51011" height="13.125" rx="1.75505" fill="white"/>
    <rect x="6.57098" y="13.8125" width="3.51011" height="9.84375" rx="1.75505" fill="white"/>
    <path d="M17.9788 9.2238C17.9788 8.25451 18.7646 7.46875 19.7339 7.46875V7.46875C20.7032 7.46875 21.4889 8.25451 21.4889 9.2238V21.9012C21.4889 22.8705 20.7032 23.6562 19.7339 23.6562V23.6562C18.7646 23.6562 17.9788 22.8705 17.9788 21.9012V9.2238Z" fill="white"/>
    <path fill-rule="evenodd" clip-rule="evenodd" d="M88.92 8.83316C89.1589 8.93302 89.4092 8.98295 89.6712 8.98295C90.2104 8.98295 90.6726 8.79475 91.0578 8.41836C91.443 8.04196 91.6356 7.58491 91.6356 7.0472C91.6356 6.50949 91.443 6.05244 91.0578 5.67604C90.6726 5.29965 90.2104 5.11145 89.6712 5.11145C89.4092 5.11145 89.1589 5.16138 88.92 5.26124C88.6812 5.3611 88.4732 5.49937 88.296 5.67604C88.1188 5.85272 87.9802 6.05628 87.88 6.28673C87.7799 6.51717 87.7298 6.77066 87.7298 7.0472C87.7298 7.32374 87.7799 7.57723 87.88 7.80767C87.9802 8.03812 88.1188 8.24168 88.296 8.41836C88.4732 8.59503 88.6812 8.7333 88.92 8.83316ZM34.6994 8.83317C34.9382 8.93303 35.1886 8.98296 35.4505 8.98296C35.9898 8.98296 36.452 8.79476 36.8372 8.41837C37.2224 8.04197 37.4149 7.58492 37.4149 7.04721C37.4149 6.5095 37.2224 6.05245 36.8372 5.67605C36.452 5.29966 35.9898 5.11146 35.4505 5.11146C35.1886 5.11146 34.9382 5.16139 34.6994 5.26125C34.4606 5.36111 34.2526 5.49938 34.0754 5.67605C33.8982 5.85273 33.7595 6.05629 33.6594 6.28674C33.5592 6.51718 33.5092 6.77067 33.5092 7.04721C33.5092 7.32375 33.5592 7.57724 33.6594 7.80768C33.7595 8.03813 33.8982 8.24169 34.0754 8.41837C34.2526 8.59504 34.4606 8.73331 34.6994 8.83317ZM33.9483 10.6192V21.911H36.9758V10.6192H33.9483ZM46.8177 22.1645V20.5514C46.5403 21.0276 46.1089 21.4347 45.5234 21.7727C44.9379 22.1107 44.2138 22.2797 43.351 22.2797C42.6268 22.2797 41.9373 22.1299 41.2825 21.8303C40.6277 21.5308 40.0499 21.116 39.5492 20.5859C39.0484 20.0559 38.6517 19.4222 38.359 18.6847C38.0662 17.9473 37.9198 17.1408 37.9198 16.2651C37.9198 15.3894 38.0662 14.5828 38.359 13.8454C38.6517 13.1079 39.0484 12.4742 39.5492 11.9442C40.0499 11.4142 40.6277 10.9994 41.2825 10.6998C41.9373 10.4002 42.6268 10.2504 43.351 10.2504C44.2138 10.2504 44.9379 10.4194 45.5234 10.7574C46.1089 11.0954 46.5403 11.5025 46.8177 11.9787L46.8189 10.6191H49.8452V26.8886H46.8177V22.1645ZM45.119 19.2724C44.7569 19.4183 44.3756 19.4913 43.975 19.4913C43.5744 19.4913 43.193 19.4145 42.831 19.2609C42.4689 19.1072 42.1492 18.8922 41.8718 18.6156C41.5945 18.3391 41.3711 18.0011 41.2016 17.6017C41.0321 17.2022 40.9474 16.7567 40.9474 16.2651C40.9474 15.7735 41.0321 15.3279 41.2016 14.9285C41.3711 14.529 41.5945 14.1911 41.8718 13.9145C42.1492 13.638 42.4689 13.4229 42.831 13.2693C43.193 13.1156 43.5744 13.0388 43.975 13.0388C44.3756 13.0388 44.7569 13.1118 45.119 13.2577C45.481 13.4037 45.8007 13.6149 46.0781 13.8915C46.3554 14.168 46.5788 14.506 46.7483 14.9054C46.9178 15.3049 47.0025 15.7581 47.0025 16.2651C47.0025 16.7721 46.9178 17.2253 46.7483 17.6247C46.5788 18.0241 46.3554 18.3621 46.0781 18.6387C45.8007 18.9152 45.481 19.1264 45.119 19.2724ZM60.6542 10.2504C61.5324 10.2504 62.3374 10.4002 63.0693 10.6998C63.8011 10.9994 64.4328 11.4142 64.9644 11.9442C65.496 12.4742 65.912 13.1079 66.2124 13.8454C66.5128 14.5828 66.6631 15.3894 66.6631 16.2651C66.6631 17.1408 66.5128 17.9473 66.2124 18.6847C65.912 19.4222 65.496 20.0559 64.9644 20.5859C64.4328 21.116 63.8011 21.5308 63.0693 21.8303C62.3374 22.1299 61.5324 22.2797 60.6542 22.2797C59.7759 22.2797 58.9709 22.1299 58.239 21.8303C57.5072 21.5308 56.8755 21.116 56.3439 20.5859C55.8124 20.0559 55.3964 19.4222 55.0959 18.6847C54.7955 17.9473 54.6452 17.1408 54.6452 16.2651C54.6452 15.3894 54.7955 14.5828 55.0959 13.8454C55.3964 13.1079 55.8124 12.4742 56.3439 11.9442C56.8755 11.4142 57.5072 10.9994 58.239 10.6998C58.9709 10.4002 59.7759 10.2504 60.6542 10.2504ZM61.775 19.2724C61.413 19.4183 61.0393 19.4913 60.6541 19.4913C60.2535 19.4913 59.8761 19.4183 59.5217 19.2724C59.1673 19.1264 58.8515 18.9152 58.5741 18.6387C58.2968 18.3621 58.0772 18.0241 57.9155 17.6247C57.7537 17.2253 57.6728 16.7721 57.6728 16.2651C57.6728 15.7581 57.7537 15.3049 57.9155 14.9054C58.0772 14.506 58.2968 14.168 58.5741 13.8915C58.8515 13.6149 59.1673 13.4037 59.5217 13.2577C59.8761 13.1118 60.2535 13.0388 60.6541 13.0388C61.0393 13.0388 61.413 13.1118 61.775 13.2577C62.1371 13.4037 62.4568 13.6149 62.7342 13.8915C63.0115 14.168 63.231 14.506 63.3928 14.9054C63.5546 15.3049 63.6355 15.7581 63.6355 16.2651C63.6355 16.7721 63.5546 17.2253 63.3928 17.6247C63.231 18.0241 63.0115 18.3621 62.7342 18.6387C62.4568 18.9152 62.1371 19.1264 61.775 19.2724ZM67.3297 10.6191H70.3585V11.9787C70.6346 11.5025 71.066 11.0954 71.6515 10.7574C72.237 10.4194 72.9612 10.2504 73.824 10.2504C74.5481 10.2504 75.2376 10.4002 75.8924 10.6998C76.5473 10.9994 77.125 11.4142 77.6258 11.9442C78.1265 12.4742 78.5233 13.1079 78.816 13.8454C79.1087 14.5828 79.2551 15.3894 79.2551 16.2651C79.2551 17.1408 79.1087 17.9473 78.816 18.6847C78.5233 19.4222 78.1265 20.0559 77.6258 20.5859C77.125 21.116 76.5473 21.5308 75.8924 21.8303C75.2376 22.1299 74.5481 22.2797 73.824 22.2797C72.9612 22.2797 72.237 22.1107 71.6515 21.7727C71.066 21.4347 70.6346 21.0276 70.3573 20.5514V22.1645V26.8886H67.3297V10.6191ZM74.344 19.2609C73.9819 19.4145 73.6006 19.4913 73.2 19.4913C72.7994 19.4913 72.4181 19.4183 72.056 19.2724C71.6939 19.1264 71.3742 18.9152 71.0969 18.6387C70.8195 18.3621 70.5961 18.0241 70.4266 17.6247C70.2572 17.2253 70.1724 16.7721 70.1724 16.2651C70.1724 15.7581 70.2572 15.3049 70.4266 14.9054C70.5961 14.506 70.8195 14.168 71.0969 13.8915C71.3742 13.6149 71.6939 13.4037 72.056 13.2577C72.4181 13.1118 72.7994 13.0388 73.2 13.0388C73.6006 13.0388 73.9819 13.1156 74.344 13.2693C74.7061 13.4229 75.0258 13.638 75.3031 13.9145C75.5804 14.1911 75.8038 14.529 75.9733 14.9285C76.1428 15.3279 76.2276 15.7735 76.2276 16.2651C76.2276 16.7567 76.1428 17.2022 75.9733 17.6017C75.8038 18.0011 75.5804 18.3391 75.3031 18.6156C75.0258 18.8922 74.7061 19.1072 74.344 19.2609ZM80.9156 13.2001H78.928V10.6191H80.9156V7.16245H83.9431V10.6191H86.7165V13.2001H83.9431V17.5786C83.9431 17.8398 83.9701 18.0818 84.024 18.3045C84.078 18.5273 84.182 18.7155 84.336 18.8691C84.5517 19.1149 84.8599 19.2378 85.2605 19.2378C85.5224 19.2378 85.7304 19.211 85.8845 19.1572C86.0386 19.1034 86.1849 19.0304 86.3236 18.9383L87.1787 21.5884C86.8243 21.7574 86.443 21.8841 86.0347 21.9686C85.6264 22.0531 85.1757 22.0954 84.6827 22.0954C84.1126 22.0954 83.6003 22.007 83.1458 21.8304C82.6913 21.6537 82.3099 21.4117 82.0018 21.1045C81.2776 20.4131 80.9156 19.4299 80.9156 18.1547V13.2001ZM88.1689 21.911V10.6192H91.1965V21.911H88.1689ZM100.565 10.6998C99.8327 10.4002 99.0276 10.2504 98.1494 10.2504C97.2712 10.2504 96.4662 10.4002 95.7343 10.6998C95.0024 10.9994 94.3707 11.4142 93.8392 11.9442C93.3076 12.4742 92.8916 13.1079 92.5912 13.8454C92.2907 14.5828 92.1405 15.3894 92.1405 16.2651C92.1405 17.1408 92.2907 17.9473 92.5912 18.6847C92.8916 19.4222 93.3076 20.0559 93.8392 20.5859C94.3707 21.116 95.0024 21.5308 95.7343 21.8303C96.4662 22.1299 97.2712 22.2797 98.1494 22.2797C99.0276 22.2797 99.8327 22.1299 100.565 21.8303C101.296 21.5308 101.928 21.116 102.46 20.5859C102.991 20.0559 103.407 19.4222 103.708 18.6847C104.008 17.9473 104.158 17.1408 104.158 16.2651C104.158 15.3894 104.008 14.5828 103.708 13.8454C103.407 13.1079 102.991 12.4742 102.46 11.9442C101.928 11.4142 101.296 10.9994 100.565 10.6998ZM98.1494 19.4913C98.5346 19.4913 98.9082 19.4183 99.2703 19.2724C99.6324 19.1264 99.9521 18.9152 100.229 18.6387C100.507 18.3621 100.726 18.0241 100.888 17.6247C101.05 17.2253 101.131 16.7721 101.131 16.2651C101.131 15.7581 101.05 15.3049 100.888 14.9054C100.726 14.506 100.507 14.168 100.229 13.8915C99.9521 13.6149 99.6324 13.4037 99.2703 13.2577C98.9082 13.1118 98.5346 13.0388 98.1494 13.0388C97.7488 13.0388 97.3713 13.1118 97.017 13.2577C96.6626 13.4037 96.3467 13.6149 96.0694 13.8915C95.7921 14.168 95.5725 14.506 95.4107 14.9054C95.249 15.3049 95.1681 15.7581 95.1681 16.2651C95.1681 16.7721 95.249 17.2253 95.4107 17.6247C95.5725 18.0241 95.7921 18.3621 96.0694 18.6387C96.3467 18.9152 96.6626 19.1264 97.017 19.2724C97.3713 19.4183 97.7488 19.4913 98.1494 19.4913ZM107.829 12.094H107.645V10.6191H104.802V21.911H107.829V16.3803C107.829 15.9194 107.887 15.4854 108.003 15.0783C108.118 14.6711 108.288 14.3178 108.511 14.0182C108.735 13.7186 109.004 13.4805 109.32 13.3038C109.636 13.1271 110.002 13.0388 110.418 13.0388C111.111 13.0388 111.639 13.2347 112.001 13.6264C112.363 14.0182 112.544 14.6212 112.544 15.4354V21.911H115.572V15.0667C115.572 14.3447 115.483 13.6879 115.306 13.0964C115.129 12.5049 114.867 11.998 114.52 11.5755C114.173 11.153 113.731 10.8265 113.191 10.5961C112.652 10.3656 112.028 10.2504 111.319 10.2504C110.549 10.2504 109.863 10.4156 109.262 10.7459C108.661 11.0762 108.184 11.5255 107.829 12.094Z" fill="white"/>
</svg>
