<svg width="24" height="24" viewBox="0 0 24 24" fill="none" xmlns="http://www.w3.org/2000/svg">
<path fill-rule="evenodd" clip-rule="evenodd" d="M1.0644 12.7545C1.0644 14.6192 -1.52634 17.1946 1.37593 20.5083C4.2782 23.822 8.27345 21.7367 9.74989 18.5791C11.2263 15.4215 13.5155 17.363 15.0382 15.9508C16.5608 14.5385 16.8378 12.3786 18.3289 12.3786C19.8201 12.3786 21.8378 13.2382 23.4032 10.9311C24.9686 8.624 23.1855 5.99787 21.1561 5.61325C19.1267 5.22862 18.2619 6.08131 17.4792 4.63064C16.6965 3.17997 15.3831 1.81012 12.8962 1.81012C10.4093 1.81012 10.1159 4.06095 8.27345 4.63064C6.431 5.20033 3.60006 3.61541 1.37593 6.27193C-0.848189 8.92844 1.0644 10.8898 1.0644 12.7545Z" fill="url(#paint0_linear_91_1833)"/>
<defs>
<linearGradient id="paint0_linear_91_1833" x1="12" y1="1.81012" x2="12" y2="22.1899" gradientUnits="userSpaceOnUse">
<stop stop-color="#50BBFF"/>
<stop offset="1" stop-color="#42E0D7"/>
</linearGradient>
</defs>
</svg>
