<svg width="46" height="32" viewBox="0 0 46 32" fill="none" xmlns="http://www.w3.org/2000/svg">
    <path fill-rule="evenodd" clip-rule="evenodd" d="M1.67876 17.1848C1.67876 20.1128 -2.40732 24.1565 2.17011 29.3597C6.74755 34.5629 13.0488 31.2886 15.3775 26.3305C17.7061 21.3725 21.3166 24.4211 23.7181 22.2036C26.1195 19.9861 26.5565 16.5945 28.9083 16.5945C31.2601 16.5945 34.4424 17.9444 36.9113 14.3218C39.3803 10.6992 36.5679 6.57567 33.3672 5.97174C30.1664 5.3678 28.8026 6.70668 27.5681 4.42886C26.3336 2.15105 24.2621 0.00012207 20.3398 0.00012207C16.4175 0.00012207 15.9547 3.53434 13.0488 4.42886C10.1429 5.32339 5.67798 2.83477 2.17011 7.00599C-1.33776 11.1772 1.67876 14.2568 1.67876 17.1848Z" fill="url(#paint0_linear_89_1083)"/>
    <path d="M11.4754 16.4221C11.8415 16.4221 12.197 16.3729 12.542 16.2746C12.8869 16.1762 13.1931 16.0252 13.4607 15.8214C13.7282 15.6177 13.9411 15.3595 14.0995 15.0469C14.2579 14.7343 14.3371 14.3637 14.3371 13.9352C14.3371 13.5629 14.2632 13.252 14.1154 13.0026C13.9675 12.7532 13.781 12.5442 13.5557 12.3756C13.3304 12.207 13.0805 12.0718 12.806 11.9699C12.5314 11.8681 12.2674 11.775 12.014 11.6907C11.838 11.6345 11.6796 11.58 11.5388 11.5273C11.398 11.4747 11.2765 11.4167 11.1744 11.3535C11.0724 11.2902 10.9949 11.2165 10.9421 11.1322C10.8893 11.0479 10.8629 10.9425 10.8629 10.8161C10.8629 10.6685 10.8964 10.5473 10.9632 10.4525C11.0301 10.3577 11.1128 10.2804 11.2114 10.2207C11.31 10.161 11.4208 10.1206 11.544 10.0995C11.6672 10.0784 11.7887 10.0679 11.9084 10.0679C12.1407 10.0679 12.3818 10.1258 12.6317 10.2418C12.8816 10.3577 13.084 10.514 13.2389 10.7107L14.3899 9.49885C14.0591 9.19677 13.6736 8.96845 13.2336 8.8139C12.7936 8.65935 12.3624 8.58207 11.94 8.58207C11.588 8.58207 11.2396 8.62598 10.8946 8.71379C10.5496 8.80161 10.2399 8.94035 9.96532 9.13003C9.69077 9.31971 9.46901 9.56207 9.30005 9.85713C9.13109 10.1522 9.04661 10.507 9.04661 10.9214C9.04661 11.2586 9.10117 11.5449 9.21029 11.7803C9.31941 12.0156 9.46373 12.2158 9.64325 12.3809C9.82277 12.546 10.0269 12.6812 10.2557 12.7866C10.4845 12.892 10.7186 12.9833 10.958 13.0606C11.2044 13.1379 11.4244 13.2099 11.618 13.2766C11.8116 13.3433 11.9735 13.4171 12.1037 13.4979C12.234 13.5787 12.3343 13.6682 12.4047 13.7666C12.4751 13.865 12.5103 13.9844 12.5103 14.1249C12.5103 14.2724 12.4821 14.3989 12.4258 14.5042C12.3695 14.6096 12.2938 14.6939 12.1988 14.7571C12.1037 14.8204 11.9928 14.866 11.8661 14.8941C11.7394 14.9222 11.6092 14.9363 11.4754 14.9363C11.1797 14.9363 10.8823 14.8608 10.5831 14.7097C10.2839 14.5587 10.0428 14.3708 9.85972 14.146L8.67701 15.3472C9.00789 15.6915 9.42325 15.9567 9.92308 16.1428C10.4229 16.329 10.9404 16.4221 11.4754 16.4221ZM17.1258 16.2324L17.675 14.7677H20.5684L21.1492 16.2324H23.1556L20.051 8.77175H18.298L15.1617 16.2324H17.1258ZM20.0721 13.324H18.1924L19.1428 10.7634L20.0721 13.324ZM27.3065 16.2324C27.6656 16.2324 28.0158 16.1955 28.3572 16.1218C28.6987 16.048 29.0031 15.9268 29.2707 15.7582C29.5382 15.5896 29.7529 15.3666 29.9148 15.0891C30.0767 14.8116 30.1577 14.4691 30.1577 14.0617C30.1577 13.8158 30.1172 13.5945 30.0363 13.3978C29.9553 13.2011 29.8462 13.029 29.7089 12.8814C29.5716 12.7339 29.4097 12.6127 29.2231 12.5179C29.0366 12.423 28.8377 12.3581 28.6265 12.3229V12.3019C28.9926 12.1824 29.2883 11.9875 29.5135 11.717C29.7388 11.4466 29.8515 11.1041 29.8515 10.6896C29.8515 10.3102 29.774 9.99763 29.6191 9.75175C29.4643 9.50587 29.2636 9.31093 29.0172 9.16691C28.7708 9.0229 28.4963 8.92103 28.1936 8.86132C27.8908 8.80161 27.5952 8.77175 27.3065 8.77175H24.3286V16.2324H27.3065ZM26.071 11.7434V10.2049H26.958C27.3382 10.2049 27.6251 10.2628 27.8187 10.3787C28.0123 10.4947 28.1091 10.6791 28.1091 10.932C28.1091 11.1989 28.0158 11.4009 27.8292 11.5379C27.6427 11.6749 27.3804 11.7434 27.0425 11.7434H26.071ZM26.071 14.7782V13.0711H27.0742C27.4614 13.0711 27.7712 13.1308 28.0035 13.2503C28.2358 13.3697 28.352 13.5839 28.352 13.8931C28.352 14.0757 28.3132 14.225 28.2358 14.3409C28.1584 14.4568 28.058 14.5464 27.9348 14.6096C27.8116 14.6728 27.6744 14.7167 27.523 14.7413C27.3716 14.7659 27.2256 14.7782 27.0848 14.7782H26.071ZM33.5989 16.2324V8.77175H31.7826V16.2324H33.5989ZM39.4077 16.4326C39.992 16.4326 40.5341 16.3378 41.0339 16.1481C41.5338 15.9584 41.965 15.6897 42.3275 15.342C42.6901 14.9942 42.9735 14.5762 43.1776 14.088C43.3818 13.5998 43.4839 13.0606 43.4839 12.4705C43.4839 11.8733 43.3818 11.3342 43.1776 10.8529C42.9735 10.3717 42.6901 9.9625 42.3275 9.6253C41.965 9.28809 41.5338 9.02817 41.0339 8.84551C40.5341 8.66286 39.992 8.57153 39.4077 8.57153C38.8234 8.57153 38.2831 8.66286 37.7868 8.84551C37.2904 9.02817 36.861 9.28809 36.4985 9.6253C36.1359 9.9625 35.8525 10.3717 35.6484 10.8529C35.4442 11.3342 35.3421 11.8733 35.3421 12.4705C35.3421 13.0606 35.4442 13.5998 35.6484 14.088C35.8525 14.5762 36.1359 14.9942 36.4985 15.342C36.861 15.6897 37.2904 15.9584 37.7868 16.1481C38.2831 16.3378 38.8234 16.4326 39.4077 16.4326ZM39.4077 14.7888C39.0909 14.7888 38.8023 14.7308 38.5418 14.6149C38.2813 14.499 38.0578 14.3391 37.8712 14.1354C37.6847 13.9317 37.5386 13.6876 37.433 13.4031C37.3274 13.1185 37.2746 12.8077 37.2746 12.4705C37.2746 12.1473 37.3256 11.8452 37.4277 11.5642C37.5298 11.2832 37.6759 11.0426 37.866 10.8424C38.056 10.6422 38.2813 10.4841 38.5418 10.3682C38.8023 10.2523 39.0909 10.1943 39.4077 10.1943C39.7245 10.1943 40.0149 10.2523 40.2789 10.3682C40.5429 10.4841 40.7682 10.6422 40.9547 10.8424C41.1413 11.0426 41.2874 11.2832 41.393 11.5642C41.4986 11.8452 41.5514 12.1473 41.5514 12.4705C41.5514 12.8077 41.4986 13.1185 41.393 13.4031C41.2874 13.6876 41.1395 13.9317 40.9495 14.1354C40.7594 14.3391 40.5341 14.499 40.2736 14.6149C40.0132 14.7308 39.7245 14.7888 39.4077 14.7888ZM12.4892 27.4287V21.5065H14.6011V19.968H8.57141V21.5065H10.6834V27.4287H12.4892ZM17.7489 27.4287V24.4676H18.3614L19.977 27.4287H22.089L20.1354 24.2358C20.6212 24.0882 21.0014 23.8424 21.2759 23.4981C21.5505 23.1539 21.6877 22.7289 21.6877 22.2231C21.6877 21.7945 21.6068 21.4363 21.4449 21.1482C21.2829 20.8602 21.0665 20.6284 20.7954 20.4527C20.5244 20.2771 20.2182 20.1524 19.8767 20.0787C19.5353 20.0049 19.185 19.968 18.826 19.968H15.9748V27.4287H17.7489ZM17.7383 23.1609V21.4222H18.6993C18.833 21.4222 18.9721 21.4327 19.1164 21.4538C19.2607 21.4749 19.391 21.5153 19.5071 21.575C19.6233 21.6347 19.7183 21.719 19.7922 21.8279C19.8662 21.9368 19.9031 22.0791 19.9031 22.2547C19.9031 22.4444 19.8626 22.5989 19.7817 22.7183C19.7007 22.8378 19.5969 22.9291 19.4702 22.9923C19.3434 23.0555 19.2026 23.0995 19.0478 23.124C18.8929 23.1486 18.7415 23.1609 18.5937 23.1609H17.7383ZM24.5715 27.4287L25.1206 25.9639H28.014L28.5948 27.4287H30.6012L27.4966 19.968H25.7436L22.6073 27.4287H24.5715ZM27.5177 24.5203H25.638L26.5884 21.9596L27.5177 24.5203ZM34.5621 27.4287C35.076 27.4287 35.5829 27.3567 36.0827 27.2127C36.5826 27.0686 37.0313 26.8438 37.4291 26.5382C37.8269 26.2327 38.1472 25.8428 38.3901 25.3686C38.6329 24.8944 38.7544 24.3306 38.7544 23.6773C38.7544 22.9748 38.6312 22.3847 38.3848 21.9069C38.1384 21.4292 37.8145 21.0481 37.4133 20.7636C37.012 20.4791 36.5544 20.2754 36.0405 20.1524C35.5266 20.0295 35.0056 19.968 34.4776 19.968H31.7743V27.4287H34.5621ZM33.5378 25.8691V21.5065H34.4354C34.7451 21.5065 35.0461 21.5416 35.3382 21.6119C35.6304 21.6821 35.8909 21.7998 36.1197 21.9649C36.3485 22.13 36.5315 22.3513 36.6688 22.6288C36.8061 22.9063 36.8747 23.2558 36.8747 23.6773C36.8747 24.0918 36.8061 24.4395 36.6688 24.7205C36.5315 25.0015 36.3485 25.2263 36.1197 25.3949C35.8909 25.5635 35.6269 25.6847 35.3277 25.7585C35.0285 25.8322 34.717 25.8691 34.3931 25.8691H33.5378ZM45.7143 27.4287V25.8902H42.24V24.3411H45.3447V22.8975H42.24V21.496H45.5242V19.968H40.4977V27.4287H45.7143Z" fill="white"/>
    <defs>
        <linearGradient id="paint0_linear_89_1083" x1="18.9263" y1="0.00012207" x2="18.9263" y2="32.0001" gradientUnits="userSpaceOnUse">
            <stop stop-color="#50BBFF"/>
            <stop offset="1" stop-color="#42E0D7"/>
        </linearGradient>
    </defs>
</svg>
